<svg xmlns="http://www.w3.org/2000/svg" viewBox="0 0 512 512" fill="none">
  <rect width="512" height="512" rx="96" fill="#18181b"/>
  <rect x="16" y="16" width="480" height="480" rx="80" fill="url(#bg)" stroke="#6366f1" stroke-width="4"/>
  <defs>
    <linearGradient id="bg" x1="0" y1="0" x2="512" y2="512" gradientUnits="userSpaceOnUse">
      <stop offset="0%" stop-color="#1e1b4b"/>
      <stop offset="100%" stop-color="#18181b"/>
    </linearGradient>
    <linearGradient id="spark" x1="180" y1="100" x2="332" y2="412" gradientUnits="userSpaceOnUse">
      <stop offset="0%" stop-color="#818cf8"/>
      <stop offset="100%" stop-color="#6366f1"/>
    </linearGradient>
  </defs>
  <!-- Sparkle / AI symbol -->
  <path d="M256 80 l20 78a80 80 0 0 0 58 58l78 20-78 20a80 80 0 0 0-58 58l-20 78-20-78a80 80 0 0 0-58-58l-78-20 78-20a80 80 0 0 0 58-58z"
        fill="url(#spark)" stroke="#a5b4fc" stroke-width="3"/>
  <!-- Small cross sparkle top-right -->
  <line x1="380" y1="100" x2="380" y2="160" stroke="#c7d2fe" stroke-width="6" stroke-linecap="round"/>
  <line x1="350" y1="130" x2="410" y2="130" stroke="#c7d2fe" stroke-width="6" stroke-linecap="round"/>
  <!-- Small dot bottom-left -->
  <circle cx="130" cy="390" r="8" fill="#818cf8" opacity="0.6"/>
</svg>
